<svg id="visual" viewBox="0 0 900 600" width="900" height="600" xmlns="http://www.w3.org/2000/svg" xmlns:xlink="http://www.w3.org/1999/xlink" version="1.1"><rect x="0" y="0" width="900" height="600" fill="#beef00"></rect><g transform="translate(-133.01760282506055 -70.97368362864376)"><path d="M337.9 -340.4C473.2 -289.3 642.3 -216.2 721.6 -80.8C800.8 54.6 790.1 252.3 698.6 396.4C607.2 540.6 434.9 631.1 272.1 646.5C109.3 661.9 -44 602 -159.5 523.2C-275 444.3 -352.7 346.4 -408.1 240.5C-463.6 134.5 -496.7 20.6 -506.2 -117.6C-515.6 -255.8 -501.4 -418.2 -413.1 -477.7C-324.8 -537.1 -162.4 -493.6 -30.5 -457.2C101.3 -420.8 202.7 -391.6 337.9 -340.4" fill="#ff0028"></path></g></svg>