<svg id="visual" viewBox="0 0 960 540" width="960" height="540" xmlns="http://www.w3.org/2000/svg" xmlns:xlink="http://www.w3.org/1999/xlink" version="1.1"><rect x="0" y="0" width="960" height="540" fill="#beef00"></rect><path d="M345 0L328.5 18C312 36 279 72 265 108C251 144 256 180 247.5 216C239 252 217 288 222.7 324C228.3 360 261.7 396 262.7 432C263.7 468 232.3 504 216.7 522L201 540L0 540L0 522C0 504 0 468 0 432C0 396 0 360 0 324C0 288 0 252 0 216C0 180 0 144 0 108C0 72 0 36 0 18L0 0Z" fill="#ff0028"></path></svg>