<svg id="visual" viewBox="0 0 900 900" width="900" height="900" xmlns="http://www.w3.org/2000/svg" xmlns:xlink="http://www.w3.org/1999/xlink" version="1.1"><rect x="0" y="0" width="900" height="900" fill="#beef00"></rect><path d="M177 0L184.8 30C192.7 60 208.3 120 240 180C271.7 240 319.3 300 341.8 360C364.3 420 361.7 480 353.2 540C344.7 600 330.3 660 328.8 720C327.3 780 338.7 840 344.3 870L350 900L0 900L0 870C0 840 0 780 0 720C0 660 0 600 0 540C0 480 0 420 0 360C0 300 0 240 0 180C0 120 0 60 0 30L0 0Z" fill="#ff0028"></path></svg>