<svg id="visual" viewBox="0 0 900 900" width="900" height="900" xmlns="http://www.w3.org/2000/svg" xmlns:xlink="http://www.w3.org/1999/xlink" version="1.1"><rect x="0" y="0" width="900" height="900" fill="#beef00"></rect><path d="M244 0L224.8 10C205.7 20 167.3 40 165.2 60C163 80 197 100 215.8 120C234.7 140 238.3 160 223 180C207.7 200 173.3 220 155.3 240C137.3 260 135.7 280 131 300C126.3 320 118.7 340 128.7 360C138.7 380 166.3 400 184.5 420C202.7 440 211.3 460 216 480C220.7 500 221.3 520 223.2 540C225 560 228 580 214 600C200 620 169 640 154.7 660C140.3 680 142.7 700 141.5 720C140.3 740 135.7 760 146.7 780C157.7 800 184.3 820 203.3 840C222.3 860 233.7 880 239.3 890L245 900L0 900L0 890C0 880 0 860 0 840C0 820 0 800 0 780C0 760 0 740 0 720C0 700 0 680 0 660C0 640 0 620 0 600C0 580 0 560 0 540C0 520 0 500 0 480C0 460 0 440 0 420C0 400 0 380 0 360C0 340 0 320 0 300C0 280 0 260 0 240C0 220 0 200 0 180C0 160 0 140 0 120C0 100 0 80 0 60C0 40 0 20 0 10L0 0Z" fill="#ff0028"></path></svg>