<svg id="visual" viewBox="0 0 900 600" width="900" height="600" xmlns="http://www.w3.org/2000/svg" xmlns:xlink="http://www.w3.org/1999/xlink" version="1.1"><rect x="0" y="0" width="900" height="600" fill="#ffffff"></rect><defs><linearGradient id="grad1_0" x1="33.3%" y1="0%" x2="100%" y2="100%"><stop offset="20%" stop-color="#ffffff" stop-opacity="1"></stop><stop offset="80%" stop-color="#ffffff" stop-opacity="1"></stop></linearGradient></defs><defs><linearGradient id="grad2_0" x1="0%" y1="0%" x2="66.7%" y2="100%"><stop offset="20%" stop-color="#ffffff" stop-opacity="1"></stop><stop offset="80%" stop-color="#ffffff" stop-opacity="1"></stop></linearGradient></defs><g transform="translate(900, 0)"><path d="M0 324.5C-42.2 317.2 -84.5 309.8 -121.3 292.9C-158.1 275.9 -189.5 249.3 -220.6 220.6C-251.7 192 -282.5 161.3 -299.8 124.2C-317.1 87.1 -320.8 43.5 -324.5 0L0 0Z" fill="#FF0066"></path></g><g transform="translate(0, 600)"><path d="M0 -324.5C33.6 -298.5 67.3 -272.5 107.9 -260.5C148.6 -248.5 196.3 -250.5 229.5 -229.5C262.6 -208.4 281.3 -164.2 294.7 -122.1C308.1 -80 316.3 -40 324.5 0L0 0Z" fill="#FF0066"></path></g></svg>