<svg id="visual" viewBox="0 0 900 600" width="900" height="600" xmlns="http://www.w3.org/2000/svg" xmlns:xlink="http://www.w3.org/1999/xlink" version="1.1"><rect x="0" y="0" width="900" height="600" fill="#ffffff"></rect><defs><linearGradient id="grad1_0" x1="33.3%" y1="100%" x2="100%" y2="0%"><stop offset="20%" stop-color="#ffffff" stop-opacity="1"></stop><stop offset="80%" stop-color="#ffffff" stop-opacity="1"></stop></linearGradient></defs><defs><linearGradient id="grad2_0" x1="0%" y1="100%" x2="66.7%" y2="0%"><stop offset="20%" stop-color="#ffffff" stop-opacity="1"></stop><stop offset="80%" stop-color="#ffffff" stop-opacity="1"></stop></linearGradient></defs><g transform="translate(900, 600)"><path d="M-324.5 0C-317.2 -42.2 -309.8 -84.5 -292.9 -121.3C-275.9 -158.1 -249.3 -189.5 -220.6 -220.6C-192 -251.7 -161.3 -282.5 -124.2 -299.8C-87.1 -317.1 -43.5 -320.8 0 -324.5L0 0Z" fill="#FF0066"></path></g><g transform="translate(0, 0)"><path d="M324.5 0C298.5 33.6 272.5 67.3 260.5 107.9C248.5 148.6 250.5 196.3 229.5 229.5C208.4 262.6 164.2 281.3 122.1 294.7C80 308.1 40 316.3 0 324.5L0 0Z" fill="#FF0066"></path></g></svg>